<svg viewBox="0 0 100 100" xmlns="http://www.w3.org/2000/svg">
  <path d="M1.22541 61.5228c-.2225-.9485.90748-1.5459 1.59638-.857L39.3342 97.1782c.6889.6889.0915 1.8189-.857 1.5765-21.0858-5.3766-37.61-21.9081-37.25149-37.2319zM.00189135 46.8891c-.01764375.2833.08887135.5599.29639865.7674l52.0468 52.0466c.2075.2074.4841.3139.7675.2964 1.3569-.0842 2.6938-.2313 4.0073-.4384L1.42858 43.8668c-.19583-.1134-.42825-.1631-.65932-.1417C.47966135 43.9488.214911 45.3647.00189135 46.8891zM3.4419 36.0217 63.9785 96.5581c1.1175-.2863 2.2123-.6336 3.2824-1.0391L3.99975 32.2577c-1.11116.7795-1.11883 1.4773-.55785 3.764zM8.68605 26.3718l70.95925 70.9591c1.0147-.5578 1.9981-1.1704 2.9475-1.8354L11.5251 23.4276c-.6949.9217-1.33174 1.9193-2.83905 2.9442zM16.1783 18.4475l74.4968 74.4968c.8766-.8034 1.7126-1.6502 2.5042-2.5371L19.2153 15.4431c-.5854.5756-1.9174 2.0048-3.037 3.0044zM24.9424 11.7361l77.3259 77.326c.6893-.9211 1.3326-1.8769 1.9269-2.8643L28.9614 8.96367c-.4862.43506-2.7174 1.88803-4.019 2.77243zM35.4788 6.48724 93.5362 64.5449c.4505-1.0129.8516-2.0535 1.2014-3.1189L38.5749 3.26316c-.3211.31109-1.9251 2.01938-3.0961 3.22408zM47.887 2.3661c-.287.0983-.5553.1976-.8229.2977L98.0611 53.6604c.1641-.5765.3188-1.1564.4637-1.7397L48.9797 2.37595c-.3619-.00775-.733-.01375-1.0927-.00985zM61.6061 0c-.4939.00009-.7969.0001-1.5913.03966L99.8757 39.9006c.0247-.5765.0377-1.1561.0377-1.7386 0-4.8654-.4411-9.6162-1.2878-14.2209L61.6061 0z"/>
</svg>
