<svg xmlns="http://www.w3.org/2000/svg" viewBox="0 0 520 124" fill="currentColor">
  <path d="M2.61 7.85l34.3-2.54c4.2-.36 5.29-.12 7.94 1.78l10.95 7.71c1.32.95 1.78 1.19 1.78 2.38v74.93c0 2.38-.83 3.57-3.21 3.8l-41.3 2.38c-3.09.24-4.52-.36-6.06-2.26L.48 86.76c-1.66-2.14-2.38-3.81-2.38-5.95V12.04c0-2.85 1.19-4.07 4.51-4.19z"/>
  <path d="M37.96 19.03l-12.45.71c-.95.06-1.19.18-1.72.59l-3.57 2.73c-.24.18-.18.36.18.36l11.32-.65c.95-.06 1.19-.18 1.72-.59l3.57-2.73c.3-.18.24-.42-.18-.42h-1.13.26zm-2.02 6.71v54.68c0 1.72-.59 2.49-1.96 2.55l-25.57 1.48c-1.37.06-1.96-.47-1.96-1.78V28.53c0-1.31.59-2.02 1.72-2.08l26.05-1.55c1.31-.06 1.72.53 1.72 1.84v-.01z"/>
  <path d="M112.57 25.67v7.06h-14.89v61.75h-8.88V32.73H73.91v-7.06h38.66z"/>
  <path d="M148.73 94.48c-15.13 0-24.01-10.01-24.01-26.88s8.88-26.88 24.01-26.88 24.01 10.01 24.01 26.88-8.88 26.88-24.01 26.88zm0-7.42c9.42 0 15.13-6.83 15.13-19.46s-5.71-19.46-15.13-19.46-15.13 6.83-15.13 19.46 5.71 19.46 15.13 19.46z"/>
  <path d="M214.77 94.48c-8.41 0-14.48-3.86-17.75-10.07v8.88h-8.41V25.67h8.88v28.9c3.27-6.21 9.34-10.07 17.28-10.07 13.29 0 21.35 10.01 21.35 25.01s-8.06 24.96-21.35 24.96zm-2.37-7.42c9.11 0 14.83-6.72 14.83-17.57s-5.72-17.52-14.83-17.52c-9.11 0-14.89 6.67-14.89 17.52s5.78 17.57 14.89 17.57z"/>
  <path d="M254.8 38.13c-3.27 0-5.95-2.61-5.95-5.83s2.67-5.83 5.95-5.83 5.89 2.61 5.89 5.83-2.61 5.83-5.89 5.83zm-4.44 55.15V45.5h8.88v47.77h-8.88z"/>
  <path d="M301.99 94.48c-15.13 0-24.01-10.01-24.01-26.88s8.88-26.88 24.01-26.88 24.01 10.01 24.01 26.88-8.88 26.88-24.01 26.88zm0-7.42c9.42 0 15.13-6.83 15.13-19.46s-5.71-19.46-15.13-19.46-15.13 6.83-15.13 19.46 5.71 19.46 15.13 19.46z"/>
  <path d="M368.52 93.29V59.34c0-5.48-3.27-8.47-9.58-8.47-6.31 0-10.43 3.63-10.43 10.61v31.8h-8.88V45.5h8.41v7.12c2.96-5.36 8.23-8.12 15.49-8.12 10.85 0 13.88 7.66 13.88 15.49v33.29h-8.88z"/>
</svg>
